<svg width="1008" height="555" viewBox="0 0 1008 555" fill="none" xmlns="http://www.w3.org/2000/svg">
<path d="M98 28C98 12.536 110.536 0 126 0H886C901.464 0 914 12.536 914 28V536C914 538.209 912.209 540 910 540H102C99.7908 540 98 538.209 98 536V28Z" fill="#0F172A"/>
<path d="M103 27C103 14.8497 112.85 5 125 5H887C899.15 5 909 14.8497 909 27V532H103V27Z" fill="black"/>
<rect width="761" height="478" transform="translate(124 33)" fill="#E0F2FE"/>
<path d="M124 33.6372H251.471V511H124V33.6372Z" fill="#BFDBFE"/>
<path d="M139.296 78.8882C139.296 74.6644 142.721 71.2402 146.945 71.2402H228.526C232.75 71.2402 236.174 74.6644 236.174 78.8882V78.8882C236.174 83.1121 232.75 86.5362 228.526 86.5362H146.945C142.721 86.5362 139.296 83.1121 139.296 78.8882V78.8882Z" fill="#93C5FD"/>
<path d="M169.889 132.424C169.889 130.312 171.602 128.6 173.714 128.6H237.449C239.561 128.6 241.273 130.312 241.273 132.424V132.424C241.273 134.536 239.561 136.248 237.449 136.248H173.714C171.602 136.248 169.889 134.536 169.889 132.424V132.424Z" fill="white"/>
<path d="M169.889 173.213C169.889 171.101 171.602 169.389 173.714 169.389H217.691C219.803 169.389 221.515 171.101 221.515 173.213V173.213C221.515 175.325 219.803 177.037 217.691 177.037H173.714C171.602 177.037 169.889 175.325 169.889 173.213V173.213Z" fill="white"/>
<path d="M169.889 214.003C169.889 211.891 171.602 210.179 173.714 210.179H228.526C230.638 210.179 232.35 211.891 232.35 214.003V214.003C232.35 216.115 230.638 217.827 228.526 217.827H173.714C171.602 217.827 169.889 216.115 169.889 214.003V214.003Z" fill="white"/>
<path fill-rule="evenodd" clip-rule="evenodd" d="M149.494 140.709C154.07 140.709 157.78 137 157.78 132.424C157.78 127.848 154.07 124.139 149.494 124.139C144.918 124.139 141.208 127.848 141.208 132.424C141.208 137 144.918 140.709 149.494 140.709ZM149.494 142.621C155.126 142.621 159.692 138.056 159.692 132.424C159.692 126.792 155.126 122.227 149.494 122.227C143.862 122.227 139.296 126.792 139.296 132.424C139.296 138.056 143.862 142.621 149.494 142.621Z" fill="#93C5FD"/>
<path d="M292.261 78.8882C292.261 76.0723 294.544 73.7896 297.36 73.7896H371.293C374.109 73.7896 376.392 76.0723 376.392 78.8882V78.8882C376.392 81.7041 374.109 83.9869 371.293 83.9869H297.36C294.544 83.9869 292.261 81.7041 292.261 78.8882V78.8882Z" fill="#BFDBFE"/>
<path fill-rule="evenodd" clip-rule="evenodd" d="M427.699 284.467C427.736 280.832 430.624 277.736 434.336 277.736C436.615 277.736 438.29 278.864 439.36 279.926C439.658 280.222 439.913 280.516 440.127 280.788C440.341 280.516 440.597 280.222 440.895 279.926C441.964 278.864 443.64 277.736 445.918 277.736C449.63 277.736 452.518 280.832 452.556 284.467V284.467C452.626 291.557 446.929 296.462 441.203 300.349C440.886 300.565 440.511 300.68 440.127 300.68C439.744 300.68 439.369 300.565 439.052 300.349C433.325 296.462 427.628 291.557 427.699 284.467L427.699 284.467ZM440.981 282.946C440.981 282.946 440.982 282.945 440.982 282.944C440.984 282.941 440.988 282.934 440.993 282.924C441.004 282.903 441.022 282.871 441.047 282.827C441.097 282.739 441.175 282.609 441.281 282.45C441.495 282.131 441.816 281.706 442.242 281.283C443.098 280.433 444.318 279.648 445.918 279.648C448.511 279.648 450.616 281.828 450.644 284.486C450.703 290.461 445.905 294.847 440.128 298.768L440.127 298.768L440.126 298.768C434.349 294.847 429.551 290.461 429.611 284.487" fill="white"/>
<path d="M292.261 289.208C292.261 286.392 294.544 284.109 297.36 284.109H331.777C334.593 284.109 336.876 286.392 336.876 289.208V289.208C336.876 292.024 334.593 294.307 331.777 294.307H297.36C294.544 294.307 292.261 292.024 292.261 289.208V289.208Z" fill="#BFDBFE"/>
<path d="M347.074 289.208C347.074 286.392 349.357 284.109 352.173 284.109H409.534C412.35 284.109 414.633 286.392 414.633 289.208V289.208C414.633 292.024 412.35 294.307 409.534 294.307H352.173C349.357 294.307 347.074 292.024 347.074 289.208V289.208Z" fill="#BFDBFE"/>
<path d="M292.261 338.92C292.261 336.808 293.973 335.096 296.085 335.096H349.623C351.735 335.096 353.447 336.808 353.447 338.92V338.92C353.447 341.032 351.735 342.744 349.623 342.744H296.085C293.973 342.744 292.261 341.032 292.261 338.92V338.92Z" fill="white"/>
<path d="M292.261 356.765C292.261 354.653 293.973 352.941 296.085 352.941H378.304C380.416 352.941 382.128 354.653 382.128 356.765V356.765C382.128 358.877 380.416 360.589 378.304 360.589H296.085C293.973 360.589 292.261 358.877 292.261 356.765V356.765Z" fill="white"/>
<path d="M363.645 338.92C363.645 336.808 365.357 335.096 367.469 335.096H431.204C433.316 335.096 435.028 336.808 435.028 338.92V338.92C435.028 341.032 433.316 342.744 431.204 342.744H367.469C365.357 342.744 363.645 341.032 363.645 338.92V338.92Z" fill="white"/>
<path d="M292.261 128.6C292.261 126.488 293.973 124.776 296.085 124.776H349.623C351.735 124.776 353.447 126.488 353.447 128.6V128.6C353.447 130.712 351.735 132.424 349.623 132.424H296.085C293.973 132.424 292.261 130.712 292.261 128.6V128.6Z" fill="white"/>
<path d="M292.261 146.445C292.261 144.333 293.973 142.621 296.085 142.621H428.017C430.129 142.621 431.841 144.333 431.841 146.445V146.445C431.841 148.557 430.129 150.269 428.017 150.269H296.085C293.973 150.269 292.261 148.557 292.261 146.445V146.445Z" fill="white"/>
<path d="M363.645 128.6C363.645 126.488 365.357 124.776 367.469 124.776H512.786C514.898 124.776 516.61 126.488 516.61 128.6V128.6C516.61 130.712 514.898 132.424 512.786 132.424H367.469C365.357 132.424 363.645 130.712 363.645 128.6V128.6Z" fill="white"/>
<path fill-rule="evenodd" clip-rule="evenodd" d="M158.417 164.928H141.846V181.499H158.417V164.928ZM139.934 163.016V183.411H160.329V163.016H139.934Z" fill="#60A5FA"/>
<g clip-path="url(#clip0_3228_592)">
<rect x="565.686" y="78.8882" width="127.471" height="174.629" rx="20" fill="white"/>
<path d="M650.598 253.669C650.598 297.858 615.071 333.681 571.246 333.681C527.421 333.681 491.894 297.858 491.894 253.669C491.894 209.479 527.421 173.657 571.246 173.657C615.071 173.657 650.598 209.479 650.598 253.669Z" fill="#FBBF24"/>
<path fill-rule="evenodd" clip-rule="evenodd" d="M710.852 146.898L669.39 105.437L627.929 146.9L669.391 188.361L710.852 146.898ZM669.39 101.832L624.324 146.9L669.392 191.966L714.458 146.898L669.39 101.832Z" fill="#BFDBFE"/>
</g>
<path d="M150.132 205.08L160.329 222.742H139.934L150.132 205.08Z" fill="#93C5FD"/>
<rect x="713.552" y="78.8882" width="127.471" height="128.741" rx="20" fill="white"/>
<path fill-rule="evenodd" clip-rule="evenodd" d="M770.893 174.881C783.602 174.881 793.817 164.675 793.817 152.19C793.817 139.706 783.602 129.499 770.893 129.499C758.185 129.499 747.969 139.706 747.969 152.19C747.969 164.675 758.185 174.881 770.893 174.881ZM770.893 181.255C787.074 181.255 800.191 168.242 800.191 152.19C800.191 136.139 787.074 123.126 770.893 123.126C754.712 123.126 741.595 136.139 741.595 152.19C741.595 168.242 754.712 181.255 770.893 181.255Z" fill="#BFDBFE"/>
<path d="M784.209 142.99L792.637 111.535L815.664 134.561L784.209 142.99Z" fill="#FBBF24"/>
<g clip-path="url(#clip1_3228_592)">
<rect x="565.686" y="273.912" width="127.471" height="195.024" rx="20" fill="white"/>
<path fill-rule="evenodd" clip-rule="evenodd" d="M685.19 493.792C720.918 493.792 749.881 464.83 749.881 429.103C749.881 393.376 720.918 364.413 685.19 364.413C649.462 364.413 620.499 393.376 620.499 429.103C620.499 464.83 649.462 493.792 685.19 493.792ZM685.19 500.165C724.438 500.165 756.255 468.349 756.255 429.103C756.255 389.856 724.438 358.04 685.19 358.04C645.942 358.04 614.125 389.856 614.125 429.103C614.125 468.349 645.942 500.165 685.19 500.165Z" fill="#FBBF24"/>
<path d="M632.608 332.054C632.608 344.101 622.764 353.867 610.62 353.867C598.476 353.867 588.631 344.101 588.631 332.054C588.631 320.007 598.476 310.24 610.62 310.24C622.764 310.24 632.608 320.007 632.608 332.054Z" fill="#BFDBFE"/>
<path fill-rule="evenodd" clip-rule="evenodd" d="M610.62 351.955C621.722 351.955 630.696 343.031 630.696 332.054C630.696 321.077 621.722 312.152 610.62 312.152C599.517 312.152 590.543 321.077 590.543 332.054C590.543 343.031 599.517 351.955 610.62 351.955ZM610.62 353.867C622.764 353.867 632.608 344.101 632.608 332.054C632.608 320.007 622.764 310.24 610.62 310.24C598.476 310.24 588.631 320.007 588.631 332.054C588.631 344.101 598.476 353.867 610.62 353.867Z" fill="#BFDBFE"/>
</g>
<g clip-path="url(#clip2_3228_592)">
<rect x="713.552" y="228.024" width="127.471" height="217.968" rx="20" fill="white"/>
<path d="M870.341 385.126C870.341 400.79 857.786 413.488 842.297 413.488C826.809 413.488 814.254 400.79 814.254 385.126C814.254 369.463 826.809 356.765 842.297 356.765C857.786 356.765 870.341 369.463 870.341 385.126Z" fill="white"/>
<path fill-rule="evenodd" clip-rule="evenodd" d="M842.297 411.576C856.709 411.576 868.429 399.754 868.429 385.126C868.429 370.498 856.709 358.677 842.297 358.677C827.886 358.677 816.166 370.498 816.166 385.126C816.166 399.754 827.886 411.576 842.297 411.576ZM842.297 413.488C857.786 413.488 870.341 400.79 870.341 385.126C870.341 369.463 857.786 356.765 842.297 356.765C826.809 356.765 814.254 369.463 814.254 385.126C814.254 400.79 826.809 413.488 842.297 413.488Z" fill="#BFDBFE"/>
<path d="M819.353 304.823C819.353 325.766 802.517 342.744 781.749 342.744C760.981 342.744 744.145 325.766 744.145 304.823C744.145 283.879 760.981 266.901 781.749 266.901C802.517 266.901 819.353 283.879 819.353 304.823Z" fill="#BFDBFE"/>
<path d="M737.134 377.797L738.932 382.97L744.408 383.082L740.044 386.391L741.63 391.633L737.134 388.505L732.638 391.633L734.224 386.391L729.86 383.082L735.336 382.97L737.134 377.797Z" fill="#FBBF24"/>
<path d="M763.266 377.797L765.064 382.97L770.539 383.082L766.175 386.391L767.761 391.633L763.266 388.505L758.77 391.633L760.356 386.391L755.992 383.082L761.467 382.97L763.266 377.797Z" fill="#FBBF24"/>
<path d="M789.397 377.797L791.195 382.97L796.671 383.082L792.307 386.391L793.892 391.633L789.397 388.505L784.901 391.633L786.487 386.391L782.123 383.082L787.599 382.97L789.397 377.797Z" fill="#FBBF24"/>
<path d="M815.529 377.797L817.327 382.97L822.802 383.082L818.438 386.391L820.024 391.633L815.529 388.505L811.033 391.633L812.619 386.391L808.255 383.082L813.73 382.97L815.529 377.797Z" fill="#FBBF24"/>
<path d="M841.66 377.797L843.458 382.97L848.934 383.082L844.57 386.391L846.156 391.633L841.66 388.505L837.165 391.633L838.751 386.391L834.386 383.082L839.862 382.97L841.66 377.797Z" fill="#FBBF24"/>
</g>
<path d="M0 539C0 537.895 0.895431 537 2 537H1006C1007.1 537 1008 537.895 1008 539V543H0V539Z" fill="#94A3B8"/>
<path d="M0 543H1008L987.646 547.105C961.613 552.355 935.123 555 908.566 555H97.9089C68.724 555 39.6267 551.806 11.1367 545.475L0 543Z" fill="#475569"/>
<defs>
<clipPath id="clip0_3228_592">
<rect x="565.686" y="78.8882" width="127.471" height="174.629" rx="20" fill="white"/>
</clipPath>
<clipPath id="clip1_3228_592">
<rect x="565.686" y="273.912" width="127.471" height="195.024" rx="20" fill="white"/>
</clipPath>
<clipPath id="clip2_3228_592">
<rect x="713.552" y="228.024" width="127.471" height="217.968" rx="20" fill="white"/>
</clipPath>
</defs>
</svg>
