<svg viewBox="0 0 547 900" fill="none" xmlns="http://www.w3.org/2000/svg">
<g clip-path="url(#clip0_3223_824)">
<path d="M0 0H420V900H0V0Z" fill="#E0F2FE"/>
<path d="M38.3999 625.2C38.3999 611.945 49.1451 601.2 62.3999 601.2H357.6C370.855 601.2 381.6 611.945 381.6 625.2V812.4C381.6 825.655 370.855 836.4 357.6 836.4H62.3999C49.1451 836.4 38.3999 825.655 38.3999 812.4V625.2Z" fill="white"/>
<mask id="mask0_3223_824" style="mask-type:alpha" maskUnits="userSpaceOnUse" x="38" y="601" width="344" height="236">
<path d="M38.3999 625.2C38.3999 611.945 49.1451 601.2 62.3999 601.2H357.6C370.855 601.2 381.6 611.945 381.6 625.2V812.4C381.6 825.655 370.855 836.4 357.6 836.4H62.3999C49.1451 836.4 38.3999 825.655 38.3999 812.4V625.2Z" fill="white"/>
</mask>
<g mask="url(#mask0_3223_824)">
<path d="M296.4 679.8C296.4 692.724 285.923 703.2 273 703.2C260.076 703.2 249.6 692.724 249.6 679.8C249.6 666.877 260.076 656.4 273 656.4C285.923 656.4 296.4 666.877 296.4 679.8Z" fill="#FBBF24"/>
<path d="M217.2 646.2C217.2 700.213 173.413 744 119.4 744C65.3864 744 21.5999 700.213 21.5999 646.2C21.5999 592.187 65.3864 548.4 119.4 548.4C173.413 548.4 217.2 592.187 217.2 646.2Z" fill="white"/>
<path fill-rule="evenodd" clip-rule="evenodd" d="M119.4 732C166.786 732 205.2 693.586 205.2 646.2C205.2 598.814 166.786 560.4 119.4 560.4C72.0139 560.4 33.5999 598.814 33.5999 646.2C33.5999 693.586 72.0139 732 119.4 732ZM119.4 744C173.413 744 217.2 700.213 217.2 646.2C217.2 592.187 173.413 548.4 119.4 548.4C65.3864 548.4 21.5999 592.187 21.5999 646.2C21.5999 700.213 65.3864 744 119.4 744Z" fill="#E0F2FE"/>
</g>
<path d="M381.6 866.4L170.4 866.4L381.6 664.8L381.6 866.4Z" fill="#BAE6FD"/>
<path d="M38.3999 555.6C38.3999 551.623 41.6235 548.4 45.5999 548.4H218.4C222.376 548.4 225.6 551.623 225.6 555.6C225.6 559.576 222.376 562.8 218.4 562.8H45.5999C41.6235 562.8 38.3999 559.576 38.3999 555.6Z" fill="white"/>
<mask id="path-11-inside-1_3223_824" fill="white">
<path d="M0 784.8H420V900H0V784.8Z"/>
</mask>
<path d="M0 784.8H420V900H0V784.8Z" fill="#E0F2FE"/>
<path d="M0 787.8H420V781.8H0V787.8Z" fill="white" mask="url(#path-11-inside-1_3223_824)"/>
<path fill-rule="evenodd" clip-rule="evenodd" d="M58.2718 819.002C59.124 819.036 59.8353 819.663 59.9755 820.504L65.8628 855.828L70.8693 838.306C71.0861 837.547 71.7719 837.018 72.5609 837.001C73.3499 836.984 74.0581 837.482 74.3076 838.231L77.4974 847.8H83.4C84.3941 847.8 85.2 848.606 85.2 849.6C85.2 850.594 84.3941 851.4 83.4 851.4H76.2C75.4252 851.4 74.7374 850.904 74.4924 850.169L72.7323 844.889L67.1307 864.495C66.8995 865.304 66.1385 865.845 65.2982 865.797C64.458 865.75 63.7628 865.126 63.6245 864.296L57.8473 829.633L52.7463 850.037C52.5459 850.838 51.826 851.4 51 851.4H43.8C42.8059 851.4 42 850.594 42 849.6C42 848.606 42.8059 847.8 43.8 847.8H49.5946L56.4537 820.364C56.6606 819.536 57.4197 818.968 58.2718 819.002Z" fill="white"/>
<path fill-rule="evenodd" clip-rule="evenodd" d="M86.9999 847.8C86.0057 847.8 85.1999 848.606 85.1999 849.6C85.1999 850.595 86.0057 851.4 86.9999 851.4C87.994 851.4 88.7999 850.595 88.7999 849.6C88.7999 848.606 87.994 847.8 86.9999 847.8ZM81.5999 849.6C81.5999 846.618 84.0175 844.2 86.9999 844.2C89.9822 844.2 92.3999 846.618 92.3999 849.6C92.3999 852.583 89.9822 855 86.9999 855C84.0175 855 81.5999 852.583 81.5999 849.6Z" fill="white"/>
<path fill-rule="evenodd" clip-rule="evenodd" d="M195.254 822.282C198.456 820.142 202.221 819 206.072 819V820.8L206.073 819C211.237 819.001 216.19 821.052 219.841 824.704C223.493 828.356 225.545 833.308 225.545 838.473V838.473C225.545 842.324 224.403 846.089 222.263 849.291C220.124 852.494 217.082 854.989 213.524 856.463C209.966 857.937 206.051 858.323 202.274 857.571C198.496 856.82 195.027 854.965 192.303 852.242C189.58 849.519 187.725 846.049 186.974 842.272C186.223 838.494 186.608 834.579 188.082 831.021C189.556 827.463 192.052 824.422 195.254 822.282ZM206.072 822.6C202.933 822.6 199.864 823.531 197.254 825.275C194.644 827.019 192.609 829.498 191.408 832.399C190.207 835.299 189.892 838.49 190.505 841.569C191.117 844.648 192.629 847.477 194.849 849.697C197.069 851.916 199.897 853.428 202.976 854.041C206.055 854.653 209.246 854.339 212.147 853.137C215.047 851.936 217.526 849.901 219.27 847.291C221.014 844.681 221.945 841.612 221.945 838.473" fill="white"/>
<path fill-rule="evenodd" clip-rule="evenodd" d="M217.985 850.385C218.688 849.682 219.827 849.682 220.53 850.385L232.873 862.728C233.576 863.43 233.576 864.57 232.873 865.273C232.17 865.976 231.03 865.976 230.327 865.273L217.985 852.931C217.282 852.228 217.282 851.088 217.985 850.385Z" fill="white"/>
<path fill-rule="evenodd" clip-rule="evenodd" d="M331.2 831.6C331.2 830.606 332.006 829.8 333 829.8H372.6C373.594 829.8 374.4 830.606 374.4 831.6C374.4 832.594 373.594 833.4 372.6 833.4H333C332.006 833.4 331.2 832.594 331.2 831.6Z" fill="white"/>
<path fill-rule="evenodd" clip-rule="evenodd" d="M331.2 842.4C331.2 841.406 332.006 840.6 333 840.6H372.6C373.594 840.6 374.4 841.406 374.4 842.4C374.4 843.394 373.594 844.2 372.6 844.2H333C332.006 844.2 331.2 843.394 331.2 842.4Z" fill="white"/>
<path fill-rule="evenodd" clip-rule="evenodd" d="M331.2 853.2C331.2 852.206 332.006 851.4 333 851.4H372.6C373.594 851.4 374.4 852.206 374.4 853.2C374.4 854.195 373.594 855 372.6 855H333C332.006 855 331.2 854.195 331.2 853.2Z" fill="white"/>
<path fill-rule="evenodd" clip-rule="evenodd" d="M67.7592 103.091C68.8136 104.145 68.8136 105.855 67.7592 106.909L53.4683 121.2L67.7592 135.491C68.8136 136.545 68.8136 138.255 67.7592 139.309C66.7048 140.363 64.9952 140.363 63.9408 139.309L47.7408 123.109C46.6863 122.055 46.6863 120.345 47.7408 119.291L63.9408 103.091C64.9952 102.036 66.7048 102.036 67.7592 103.091Z" fill="white"/>
<path fill-rule="evenodd" clip-rule="evenodd" d="M49.2 121.2C49.2 119.709 50.4088 118.5 51.9 118.5H84.75C86.2412 118.5 87.45 119.709 87.45 121.2C87.45 122.691 86.2412 123.9 84.75 123.9H51.9C50.4088 123.9 49.2 122.691 49.2 121.2Z" fill="white"/>
<path d="M130.8 121.2C130.8 115.898 135.098 111.6 140.4 111.6H279.6C284.902 111.6 289.2 115.898 289.2 121.2C289.2 126.502 284.902 130.8 279.6 130.8H140.4C135.098 130.8 130.8 126.502 130.8 121.2Z" fill="#BAE6FD"/>
<path d="M38.3999 214.8C38.3999 210.824 41.6235 207.6 45.5999 207.6H146.4C150.376 207.6 153.6 210.824 153.6 214.8C153.6 218.777 150.376 222 146.4 222H45.5999C41.6235 222 38.3999 218.777 38.3999 214.8Z" fill="white"/>
<path d="M38.3999 248.4C38.3999 244.424 41.6235 241.2 45.5999 241.2H200.4C204.376 241.2 207.6 244.424 207.6 248.4C207.6 252.377 204.376 255.6 200.4 255.6H45.5999C41.6235 255.6 38.3999 252.377 38.3999 248.4Z" fill="white"/>
<path d="M172.8 214.8C172.8 210.824 176.023 207.6 180 207.6H300C303.976 207.6 307.2 210.824 307.2 214.8C307.2 218.777 303.976 222 300 222H180C176.023 222 172.8 218.777 172.8 214.8Z" fill="white"/>
</g>
<rect x="2.5" y="2.5" width="415" height="895" rx="17.5" stroke="white" stroke-width="5"/>
<g filter="url(#filter0_dd_3223_824)">
<g clip-path="url(#clip1_3223_824)">
<rect x="38.3999" y="294" width="144" height="196.8" rx="20" fill="white"/>
<path d="M134.323 490.97C134.323 540.77 94.1886 581.14 44.6805 581.14C-4.82733 581.14 -44.9614 540.77 -44.9614 490.97C-44.9614 441.171 -4.82733 400.8 44.6805 400.8C94.1886 400.8 134.323 441.171 134.323 490.97Z" fill="#FBBF24"/>
<path d="M158.303 353.156C158.303 371.236 143.732 385.893 125.758 385.893C107.784 385.893 93.2129 371.236 93.2129 353.156C93.2129 335.076 107.784 320.419 125.758 320.419C143.732 320.419 158.303 335.076 158.303 353.156Z" fill="white"/>
<path fill-rule="evenodd" clip-rule="evenodd" d="M125.758 382.293C141.724 382.293 154.703 369.268 154.703 353.156C154.703 337.045 141.724 324.019 125.758 324.019C109.792 324.019 96.8129 337.045 96.8129 353.156C96.8129 369.268 109.792 382.293 125.758 382.293ZM125.758 385.893C143.732 385.893 158.303 371.236 158.303 353.156C158.303 335.076 143.732 320.419 125.758 320.419C107.784 320.419 93.2129 335.076 93.2129 353.156C93.2129 371.236 107.784 385.893 125.758 385.893Z" fill="#BAE6FD"/>
</g>
<rect x="39.3999" y="295" width="142" height="194.8" rx="19" stroke="#38BDF8" stroke-width="2"/>
</g>
<g filter="url(#filter1_dd_3223_824)">
<rect x="201.6" y="294" width="144" height="196.8" rx="20" fill="white"/>
<rect x="202.6" y="295" width="142" height="194.8" rx="19" stroke="#38BDF8" stroke-width="2"/>
<path d="M325.858 346.839C325.858 355.72 318.579 362.92 309.6 362.92C300.621 362.92 293.342 355.72 293.342 346.839C293.342 337.957 300.621 330.757 309.6 330.757C318.579 330.757 325.858 337.957 325.858 346.839Z" fill="#FBBF24"/>
<path d="M300.309 434.712C300.309 452.792 285.492 467.448 267.213 467.448C248.934 467.448 234.116 452.792 234.116 434.712C234.116 416.631 248.934 401.975 267.213 401.975C285.492 401.975 300.309 416.631 300.309 434.712Z" fill="#BAE6FD"/>
<path fill-rule="evenodd" clip-rule="evenodd" d="M267.213 463.848C283.541 463.848 296.709 450.766 296.709 434.712C296.709 418.657 283.541 405.575 267.213 405.575C250.885 405.575 237.716 418.657 237.716 434.712C237.716 450.766 250.885 463.848 267.213 463.848ZM267.213 467.448C285.492 467.448 300.309 452.792 300.309 434.712C300.309 416.631 285.492 401.975 267.213 401.975C248.934 401.975 234.116 416.631 234.116 434.712C234.116 452.792 248.934 467.448 267.213 467.448Z" fill="#BAE6FD"/>
</g>
<g filter="url(#filter2_dd_3223_824)">
<rect x="364.8" y="294" width="144" height="196.8" rx="20" fill="white"/>
<rect x="365.8" y="295" width="142" height="194.8" rx="19" stroke="#38BDF8" stroke-width="2"/>
<path d="M500.69 379.575C500.69 397.655 486.119 412.312 468.145 412.312C450.171 412.312 435.6 397.655 435.6 379.575C435.6 361.495 450.171 346.838 468.145 346.838C486.119 346.838 500.69 361.495 500.69 379.575Z" fill="white"/>
<path fill-rule="evenodd" clip-rule="evenodd" d="M468.145 408.712C484.111 408.712 497.09 395.687 497.09 379.575C497.09 363.463 484.111 350.438 468.145 350.438C452.179 350.438 439.2 363.463 439.2 379.575C439.2 395.687 452.179 408.712 468.145 408.712ZM468.145 412.312C486.119 412.312 500.69 397.655 500.69 379.575C500.69 361.495 486.119 346.838 468.145 346.838C450.171 346.838 435.6 361.495 435.6 379.575C435.6 397.655 450.171 412.312 468.145 412.312Z" fill="#BAE6FD"/>
<path d="M420 344.4L431.285 376.867L465.651 377.567L438.26 398.333L448.214 431.233L420 411.6L391.786 431.233L401.74 398.333L374.349 377.567L408.714 376.867L420 344.4Z" fill="white"/>
<path fill-rule="evenodd" clip-rule="evenodd" d="M431.285 376.867L420 344.4L408.714 376.867L374.349 377.567L401.74 398.333L391.786 431.233L420 411.6L448.214 431.233L438.26 398.333L465.651 377.567L431.285 376.867ZM455.223 380.955L428.707 380.415L420 355.365L411.292 380.415L384.777 380.955L405.911 396.978L398.231 422.362L420 407.214L441.769 422.362L434.089 396.978L455.223 380.955Z" fill="#FBBF24"/>
</g>
<defs>
<filter id="filter0_dd_3223_824" x="0.399902" y="279" width="220" height="274.8" filterUnits="userSpaceOnUse" color-interpolation-filters="sRGB">
<feFlood flood-opacity="0" result="BackgroundImageFix"/>
<feColorMatrix in="SourceAlpha" type="matrix" values="0 0 0 0 0 0 0 0 0 0 0 0 0 0 0 0 0 0 127 0" result="hardAlpha"/>
<feOffset/>
<feGaussianBlur stdDeviation="7.5"/>
<feComposite in2="hardAlpha" operator="out"/>
<feColorMatrix type="matrix" values="0 0 0 0 0 0 0 0 0 0 0 0 0 0 0 0 0 0 0.07 0"/>
<feBlend mode="normal" in2="BackgroundImageFix" result="effect1_dropShadow_3223_824"/>
<feColorMatrix in="SourceAlpha" type="matrix" values="0 0 0 0 0 0 0 0 0 0 0 0 0 0 0 0 0 0 127 0" result="hardAlpha"/>
<feMorphology radius="12" operator="erode" in="SourceAlpha" result="effect2_dropShadow_3223_824"/>
<feOffset dy="25"/>
<feGaussianBlur stdDeviation="25"/>
<feColorMatrix type="matrix" values="0 0 0 0 0 0 0 0 0 0 0 0 0 0 0 0 0 0 0.25 0"/>
<feBlend mode="normal" in2="effect1_dropShadow_3223_824" result="effect2_dropShadow_3223_824"/>
<feBlend mode="normal" in="SourceGraphic" in2="effect2_dropShadow_3223_824" result="shape"/>
</filter>
<filter id="filter1_dd_3223_824" x="163.6" y="279" width="220" height="274.8" filterUnits="userSpaceOnUse" color-interpolation-filters="sRGB">
<feFlood flood-opacity="0" result="BackgroundImageFix"/>
<feColorMatrix in="SourceAlpha" type="matrix" values="0 0 0 0 0 0 0 0 0 0 0 0 0 0 0 0 0 0 127 0" result="hardAlpha"/>
<feOffset/>
<feGaussianBlur stdDeviation="7.5"/>
<feComposite in2="hardAlpha" operator="out"/>
<feColorMatrix type="matrix" values="0 0 0 0 0 0 0 0 0 0 0 0 0 0 0 0 0 0 0.07 0"/>
<feBlend mode="normal" in2="BackgroundImageFix" result="effect1_dropShadow_3223_824"/>
<feColorMatrix in="SourceAlpha" type="matrix" values="0 0 0 0 0 0 0 0 0 0 0 0 0 0 0 0 0 0 127 0" result="hardAlpha"/>
<feMorphology radius="12" operator="erode" in="SourceAlpha" result="effect2_dropShadow_3223_824"/>
<feOffset dy="25"/>
<feGaussianBlur stdDeviation="25"/>
<feColorMatrix type="matrix" values="0 0 0 0 0 0 0 0 0 0 0 0 0 0 0 0 0 0 0.25 0"/>
<feBlend mode="normal" in2="effect1_dropShadow_3223_824" result="effect2_dropShadow_3223_824"/>
<feBlend mode="normal" in="SourceGraphic" in2="effect2_dropShadow_3223_824" result="shape"/>
</filter>
<filter id="filter2_dd_3223_824" x="326.8" y="279" width="220" height="274.8" filterUnits="userSpaceOnUse" color-interpolation-filters="sRGB">
<feFlood flood-opacity="0" result="BackgroundImageFix"/>
<feColorMatrix in="SourceAlpha" type="matrix" values="0 0 0 0 0 0 0 0 0 0 0 0 0 0 0 0 0 0 127 0" result="hardAlpha"/>
<feOffset/>
<feGaussianBlur stdDeviation="7.5"/>
<feComposite in2="hardAlpha" operator="out"/>
<feColorMatrix type="matrix" values="0 0 0 0 0 0 0 0 0 0 0 0 0 0 0 0 0 0 0.07 0"/>
<feBlend mode="normal" in2="BackgroundImageFix" result="effect1_dropShadow_3223_824"/>
<feColorMatrix in="SourceAlpha" type="matrix" values="0 0 0 0 0 0 0 0 0 0 0 0 0 0 0 0 0 0 127 0" result="hardAlpha"/>
<feMorphology radius="12" operator="erode" in="SourceAlpha" result="effect2_dropShadow_3223_824"/>
<feOffset dy="25"/>
<feGaussianBlur stdDeviation="25"/>
<feColorMatrix type="matrix" values="0 0 0 0 0 0 0 0 0 0 0 0 0 0 0 0 0 0 0.25 0"/>
<feBlend mode="normal" in2="effect1_dropShadow_3223_824" result="effect2_dropShadow_3223_824"/>
<feBlend mode="normal" in="SourceGraphic" in2="effect2_dropShadow_3223_824" result="shape"/>
</filter>
<clipPath id="clip0_3223_824">
<rect width="420" height="900" rx="20" fill="white"/>
</clipPath>
<clipPath id="clip1_3223_824">
<rect x="38.3999" y="294" width="144" height="196.8" rx="20" fill="white"/>
</clipPath>
</defs>
</svg>
