<svg width="461" height="900" viewBox="0 0 461 900" fill="none" xmlns="http://www.w3.org/2000/svg">
<g clip-path="url(#clip0_3235_663)">
<path d="M0 0H420V900H0V0Z" fill="#E0F2FE"/>
<path fill-rule="evenodd" clip-rule="evenodd" d="M329.4 345.073C329.47 338.228 334.908 332.4 341.897 332.4C346.186 332.4 349.342 334.523 351.355 336.523C351.916 337.079 352.397 337.634 352.8 338.146C353.203 337.634 353.684 337.079 354.245 336.523C356.258 334.523 359.414 332.4 363.704 332.4C370.692 332.4 376.13 338.228 376.2 345.073V345.073C376.333 358.423 365.607 367.658 354.825 374.977C354.228 375.383 353.522 375.6 352.8 375.6C352.078 375.6 351.372 375.383 350.775 374.977C339.992 367.658 329.266 358.422 329.4 345.073L329.4 345.073ZM354.408 342.209C354.408 342.209 354.409 342.207 354.41 342.205C354.413 342.199 354.42 342.186 354.43 342.167C354.45 342.129 354.484 342.067 354.531 341.985C354.625 341.82 354.773 341.575 354.973 341.276C355.375 340.675 355.979 339.874 356.781 339.077C358.394 337.477 360.69 336 363.704 336C368.586 336 372.549 340.103 372.6 345.109C372.712 356.358 363.678 364.616 352.802 371.999L352.8 372L352.798 371.999C341.921 364.616 332.887 356.358 333 345.11" fill="white"/>
<path d="M38.3999 354C38.3999 348.698 42.698 344.4 47.9999 344.4H112.8C118.102 344.4 122.4 348.698 122.4 354C122.4 359.302 118.102 363.6 112.8 363.6H47.9999C42.698 363.6 38.3999 359.302 38.3999 354Z" fill="#BAE6FD"/>
<path d="M141.6 354C141.6 348.698 145.898 344.4 151.2 344.4H259.2C264.502 344.4 268.8 348.698 268.8 354C268.8 359.302 264.502 363.6 259.2 363.6H151.2C145.898 363.6 141.6 359.302 141.6 354Z" fill="#BAE6FD"/>
<path d="M38.3999 399.6C38.3999 395.623 41.6235 392.4 45.5999 392.4H146.4C150.376 392.4 153.6 395.623 153.6 399.6C153.6 403.576 150.376 406.8 146.4 406.8H45.5999C41.6235 406.8 38.3999 403.576 38.3999 399.6Z" fill="white"/>
<path d="M38.3999 433.2C38.3999 429.224 41.6235 426 45.5999 426H200.4C204.376 426 207.6 429.224 207.6 433.2C207.6 437.176 204.376 440.4 200.4 440.4H45.5999C41.6235 440.4 38.3999 437.176 38.3999 433.2Z" fill="white"/>
<path d="M172.8 399.6C172.8 395.623 176.023 392.4 180 392.4H300C303.976 392.4 307.2 395.623 307.2 399.6C307.2 403.576 303.976 406.8 300 406.8H180C176.023 406.8 172.8 403.576 172.8 399.6Z" fill="white"/>
<path d="M38.3999 75.6001C38.3999 62.3453 49.1451 51.6001 62.3999 51.6001H357.6C370.855 51.6001 381.6 62.3453 381.6 75.6001V262.8C381.6 276.055 370.855 286.8 357.6 286.8H62.3999C49.1451 286.8 38.3999 276.055 38.3999 262.8V75.6001Z" fill="white"/>
<mask id="mask0_3235_663" style="mask-type:alpha" maskUnits="userSpaceOnUse" x="38" y="51" width="344" height="236">
<path d="M38.3999 75.6001C38.3999 62.3453 49.1451 51.6001 62.3999 51.6001H357.6C370.855 51.6001 381.6 62.3453 381.6 75.6001V262.8C381.6 276.055 370.855 286.8 357.6 286.8H62.3999C49.1451 286.8 38.3999 276.055 38.3999 262.8V75.6001Z" fill="white"/>
</mask>
<g mask="url(#mask0_3235_663)">
<path d="M38.3999 51.6001H249.6L38.3999 253.2V51.6001Z" fill="#BAE6FD"/>
<path d="M436.8 262.8C436.8 303.89 403.49 337.2 362.4 337.2C321.31 337.2 288 303.89 288 262.8C288 221.71 321.31 188.4 362.4 188.4C403.49 188.4 436.8 221.71 436.8 262.8Z" fill="#FBBF24"/>
<path d="M362.4 199.2C362.4 240.953 328.553 274.8 286.8 274.8C245.047 274.8 211.2 240.953 211.2 199.2C211.2 157.447 245.047 123.6 286.8 123.6C328.553 123.6 362.4 157.447 362.4 199.2Z" fill="white"/>
<path fill-rule="evenodd" clip-rule="evenodd" d="M286.8 262.8C321.925 262.8 350.4 234.325 350.4 199.2C350.4 164.075 321.925 135.6 286.8 135.6C251.675 135.6 223.2 164.075 223.2 199.2C223.2 234.325 251.675 262.8 286.8 262.8ZM286.8 274.8C328.553 274.8 362.4 240.953 362.4 199.2C362.4 157.447 328.553 123.6 286.8 123.6C245.047 123.6 211.2 157.447 211.2 199.2C211.2 240.953 245.047 274.8 286.8 274.8Z" fill="#E0F2FE"/>
</g>
<mask id="path-16-inside-1_3235_663" fill="white">
<path d="M0 784.8H420V900H0V784.8Z"/>
</mask>
<path d="M0 787.8H420V781.8H0V787.8Z" fill="white" mask="url(#path-16-inside-1_3235_663)"/>
<path fill-rule="evenodd" clip-rule="evenodd" d="M58.2718 819.001C59.124 819.035 59.8353 819.663 59.9755 820.504L65.8628 855.828L70.8693 838.306C71.0861 837.547 71.7719 837.018 72.5609 837C73.3499 836.983 74.0581 837.482 74.3076 838.231L77.4974 847.8H83.4C84.3941 847.8 85.2 848.606 85.2 849.6C85.2 850.594 84.3941 851.4 83.4 851.4H76.2C75.4252 851.4 74.7374 850.904 74.4924 850.169L72.7323 844.889L67.1307 864.494C66.8995 865.304 66.1385 865.845 65.2982 865.797C64.458 865.75 63.7628 865.126 63.6245 864.296L57.8473 829.633L52.7463 850.037C52.5459 850.838 51.826 851.4 51 851.4H43.8C42.8059 851.4 42 850.594 42 849.6C42 848.606 42.8059 847.8 43.8 847.8H49.5946L56.4537 820.363C56.6606 819.536 57.4197 818.967 58.2718 819.001Z" fill="white"/>
<path fill-rule="evenodd" clip-rule="evenodd" d="M86.9999 847.8C86.0057 847.8 85.1999 848.606 85.1999 849.6C85.1999 850.594 86.0057 851.4 86.9999 851.4C87.994 851.4 88.7999 850.594 88.7999 849.6C88.7999 848.606 87.994 847.8 86.9999 847.8ZM81.5999 849.6C81.5999 846.618 84.0175 844.2 86.9999 844.2C89.9822 844.2 92.3999 846.618 92.3999 849.6C92.3999 852.583 89.9822 855 86.9999 855C84.0175 855 81.5999 852.583 81.5999 849.6Z" fill="white"/>
<path fill-rule="evenodd" clip-rule="evenodd" d="M195.254 822.282C198.456 820.142 202.221 819 206.072 819V820.8L206.073 819C211.237 819 216.19 821.052 219.841 824.704C223.493 828.355 225.545 833.308 225.545 838.472V838.473C225.545 842.324 224.403 846.089 222.263 849.291C220.124 852.493 217.082 854.989 213.524 856.463C209.966 857.937 206.051 858.322 202.274 857.571C198.496 856.82 195.027 854.965 192.303 852.242C189.58 849.519 187.725 846.049 186.974 842.271C186.223 838.494 186.608 834.579 188.082 831.021C189.556 827.463 192.052 824.421 195.254 822.282ZM206.072 822.6C202.933 822.6 199.864 823.531 197.254 825.275C194.644 827.019 192.609 829.498 191.408 832.398C190.207 835.299 189.892 838.49 190.505 841.569C191.117 844.648 192.629 847.476 194.849 849.696C197.069 851.916 199.897 853.428 202.976 854.04C206.055 854.653 209.246 854.338 212.147 853.137C215.047 851.936 217.526 849.901 219.27 847.291C221.014 844.681 221.945 841.612 221.945 838.473" fill="white"/>
<path fill-rule="evenodd" clip-rule="evenodd" d="M217.985 850.385C218.688 849.682 219.827 849.682 220.53 850.385L232.873 862.727C233.576 863.43 233.576 864.57 232.873 865.273C232.17 865.976 231.03 865.976 230.327 865.273L217.985 852.93C217.282 852.228 217.282 851.088 217.985 850.385Z" fill="white"/>
<path fill-rule="evenodd" clip-rule="evenodd" d="M331.2 831.6C331.2 830.606 332.006 829.8 333 829.8H372.6C373.594 829.8 374.4 830.606 374.4 831.6C374.4 832.594 373.594 833.4 372.6 833.4H333C332.006 833.4 331.2 832.594 331.2 831.6Z" fill="white"/>
<path fill-rule="evenodd" clip-rule="evenodd" d="M331.2 842.4C331.2 841.406 332.006 840.6 333 840.6H372.6C373.594 840.6 374.4 841.406 374.4 842.4C374.4 843.394 373.594 844.2 372.6 844.2H333C332.006 844.2 331.2 843.394 331.2 842.4Z" fill="white"/>
<path fill-rule="evenodd" clip-rule="evenodd" d="M331.2 853.2C331.2 852.206 332.006 851.4 333 851.4H372.6C373.594 851.4 374.4 852.206 374.4 853.2C374.4 854.194 373.594 855 372.6 855H333C332.006 855 331.2 854.194 331.2 853.2Z" fill="white"/>
</g>
<rect x="2.5" y="2.5" width="415" height="895" rx="17.5" stroke="white" stroke-width="5"/>
<path d="M307.2 639.6C307.2 671.412 281.412 697.2 249.6 697.2C217.788 697.2 192 671.412 192 639.6C192 607.788 217.788 582 249.6 582C281.412 582 307.2 607.788 307.2 639.6Z" fill="white"/>
<path fill-rule="evenodd" clip-rule="evenodd" d="M249.6 693.6C279.423 693.6 303.6 669.423 303.6 639.6C303.6 609.777 279.423 585.6 249.6 585.6C219.777 585.6 195.6 609.777 195.6 639.6C195.6 669.423 219.777 693.6 249.6 693.6ZM249.6 697.2C281.412 697.2 307.2 671.412 307.2 639.6C307.2 607.788 281.412 582 249.6 582C217.788 582 192 607.788 192 639.6C192 671.412 217.788 697.2 249.6 697.2Z" fill="#BAE6FD"/>
<path d="M460.8 639.6C460.8 671.412 435.011 697.2 403.2 697.2C371.388 697.2 345.6 671.412 345.6 639.6C345.6 607.788 371.388 582 403.2 582C435.011 582 460.8 607.788 460.8 639.6Z" fill="#BAE6FD"/>
<path fill-rule="evenodd" clip-rule="evenodd" d="M403.2 693.6C433.023 693.6 457.2 669.423 457.2 639.6C457.2 609.777 433.023 585.6 403.2 585.6C373.376 585.6 349.2 609.777 349.2 639.6C349.2 669.423 373.376 693.6 403.2 693.6ZM403.2 697.2C435.011 697.2 460.8 671.412 460.8 639.6C460.8 607.788 435.011 582 403.2 582C371.388 582 345.6 607.788 345.6 639.6C345.6 671.412 371.388 697.2 403.2 697.2Z" fill="white"/>
<path d="M153.6 639.6C153.6 671.412 127.812 697.2 95.9999 697.2C64.1883 697.2 38.3999 671.412 38.3999 639.6C38.3999 607.788 64.1883 582 95.9999 582C127.812 582 153.6 607.788 153.6 639.6Z" fill="#FBBF24"/>
<path fill-rule="evenodd" clip-rule="evenodd" d="M95.9999 693.6C125.823 693.6 150 669.423 150 639.6C150 609.777 125.823 585.6 95.9999 585.6C66.1765 585.6 41.9999 609.777 41.9999 639.6C41.9999 669.423 66.1765 693.6 95.9999 693.6ZM95.9999 697.2C127.812 697.2 153.6 671.412 153.6 639.6C153.6 607.788 127.812 582 95.9999 582C64.1883 582 38.3999 607.788 38.3999 639.6C38.3999 671.412 64.1883 697.2 95.9999 697.2Z" fill="white"/>
<path d="M38.3999 543.6C38.3999 538.298 42.698 534 47.9999 534H132C137.302 534 141.6 538.298 141.6 543.6C141.6 548.902 137.302 553.2 132 553.2H47.9999C42.698 553.2 38.3999 548.902 38.3999 543.6Z" fill="#BAE6FD"/>
<path d="M160.8 543.6C160.8 538.298 165.098 534 170.4 534H208.8C214.102 534 218.4 538.298 218.4 543.6C218.4 548.902 214.102 553.2 208.8 553.2H170.4C165.098 553.2 160.8 548.902 160.8 543.6Z" fill="#BAE6FD"/>
<defs>
<clipPath id="clip0_3235_663">
<rect width="420" height="900" rx="20" fill="white"/>
</clipPath>
</defs>
</svg>
